<svg width="621" height="349" viewBox="0 0 621 349" fill="none" xmlns="http://www.w3.org/2000/svg">
<path d="M46.95 204.3C57.95 204.3 67.6 206.45 75.9 210.75C84.3 215.05 90.75 221.2 95.25 229.2C99.85 237.1 102.15 246.3 102.15 256.8C102.15 267.3 99.85 276.5 95.25 284.4C90.75 292.2 84.3 298.25 75.9 302.55C67.6 306.85 57.95 309 46.95 309H10.35V204.3H46.95ZM46.2 291.15C57.2 291.15 65.7 288.15 71.7 282.15C77.7 276.15 80.7 267.7 80.7 256.8C80.7 245.9 77.7 237.4 71.7 231.3C65.7 225.1 57.2 222 46.2 222H31.35V291.15H46.2ZM138.87 238.8C141.57 234.4 145.07 230.95 149.37 228.45C153.77 225.95 158.77 224.7 164.37 224.7V246.75H158.82C152.22 246.75 147.22 248.3 143.82 251.4C140.52 254.5 138.87 259.9 138.87 267.6V309H117.87V225.9H138.87V238.8ZM215.414 310.35C207.414 310.35 200.214 308.6 193.814 305.1C187.414 301.5 182.364 296.45 178.664 289.95C175.064 283.45 173.264 275.95 173.264 267.45C173.264 258.95 175.114 251.45 178.814 244.95C182.614 238.45 187.764 233.45 194.264 229.95C200.764 226.35 208.014 224.55 216.014 224.55C224.014 224.55 231.264 226.35 237.764 229.95C244.264 233.45 249.364 238.45 253.064 244.95C256.864 251.45 258.764 258.95 258.764 267.45C258.764 275.95 256.814 283.45 252.914 289.95C249.114 296.45 243.914 301.5 237.314 305.1C230.814 308.6 223.514 310.35 215.414 310.35ZM215.414 292.05C219.214 292.05 222.764 291.15 226.064 289.35C229.464 287.45 232.164 284.65 234.164 280.95C236.164 277.25 237.164 272.75 237.164 267.45C237.164 259.55 235.064 253.5 230.864 249.3C226.764 245 221.714 242.85 215.714 242.85C209.714 242.85 204.664 245 200.564 249.3C196.564 253.5 194.564 259.55 194.564 267.45C194.564 275.35 196.514 281.45 200.414 285.75C204.414 289.95 209.414 292.05 215.414 292.05ZM295.168 237.9C297.868 234.1 301.568 230.95 306.268 228.45C311.068 225.85 316.518 224.55 322.618 224.55C329.718 224.55 336.118 226.3 341.818 229.8C347.618 233.3 352.168 238.3 355.468 244.8C358.868 251.2 360.568 258.65 360.568 267.15C360.568 275.65 358.868 283.2 355.468 289.8C352.168 296.3 347.618 301.35 341.818 304.95C336.118 308.55 329.718 310.35 322.618 310.35C316.518 310.35 311.118 309.1 306.418 306.6C301.818 304.1 298.068 300.95 295.168 297.15V348.6H274.168V225.9H295.168V237.9ZM339.118 267.15C339.118 262.15 338.068 257.85 335.968 254.25C333.968 250.55 331.268 247.75 327.868 245.85C324.568 243.95 320.968 243 317.068 243C313.268 243 309.668 244 306.268 246C302.968 247.9 300.268 250.7 298.168 254.4C296.168 258.1 295.168 262.45 295.168 267.45C295.168 272.45 296.168 276.8 298.168 280.5C300.268 284.2 302.968 287.05 306.268 289.05C309.668 290.95 313.268 291.9 317.068 291.9C320.968 291.9 324.568 290.9 327.868 288.9C331.268 286.9 333.968 284.05 335.968 280.35C338.068 276.65 339.118 272.25 339.118 267.15ZM396.829 237.9C399.529 234.1 403.229 230.95 407.929 228.45C412.729 225.85 418.179 224.55 424.279 224.55C431.379 224.55 437.779 226.3 443.479 229.8C449.279 233.3 453.829 238.3 457.129 244.8C460.529 251.2 462.229 258.65 462.229 267.15C462.229 275.65 460.529 283.2 457.129 289.8C453.829 296.3 449.279 301.35 443.479 304.95C437.779 308.55 431.379 310.35 424.279 310.35C418.179 310.35 412.779 309.1 408.079 306.6C403.479 304.1 399.729 300.95 396.829 297.15V348.6H375.829V225.9H396.829V237.9ZM440.779 267.15C440.779 262.15 439.729 257.85 437.629 254.25C435.629 250.55 432.929 247.75 429.529 245.85C426.229 243.95 422.629 243 418.729 243C414.929 243 411.329 244 407.929 246C404.629 247.9 401.929 250.7 399.829 254.4C397.829 258.1 396.829 262.45 396.829 267.45C396.829 272.45 397.829 276.8 399.829 280.5C401.929 284.2 404.629 287.05 407.929 289.05C411.329 290.95 414.929 291.9 418.729 291.9C422.629 291.9 426.229 290.9 429.529 288.9C432.929 286.9 435.629 284.05 437.629 280.35C439.729 276.65 440.779 272.25 440.779 267.15ZM554.739 265.65C554.739 268.65 554.539 271.35 554.139 273.75H493.389C493.889 279.75 495.989 284.45 499.689 287.85C503.389 291.25 507.939 292.95 513.339 292.95C521.139 292.95 526.689 289.6 529.989 282.9H552.639C550.239 290.9 545.639 297.5 538.839 302.7C532.039 307.8 523.689 310.35 513.789 310.35C505.789 310.35 498.589 308.6 492.189 305.1C485.889 301.5 480.939 296.45 477.339 289.95C473.839 283.45 472.089 275.95 472.089 267.45C472.089 258.85 473.839 251.3 477.339 244.8C480.839 238.3 485.739 233.3 492.039 229.8C498.339 226.3 505.589 224.55 513.789 224.55C521.689 224.55 528.739 226.25 534.939 229.65C541.239 233.05 546.089 237.9 549.489 244.2C552.989 250.4 554.739 257.55 554.739 265.65ZM532.989 259.65C532.889 254.25 530.939 249.95 527.139 246.75C523.339 243.45 518.689 241.8 513.189 241.8C507.989 241.8 503.589 243.4 499.989 246.6C496.489 249.7 494.339 254.05 493.539 259.65H532.989ZM591.067 238.8C593.767 234.4 597.267 230.95 601.567 228.45C605.967 225.95 610.967 224.7 616.567 224.7V246.75H611.017C604.417 246.75 599.417 248.3 596.017 251.4C592.717 254.5 591.067 259.9 591.067 267.6V309H570.067V225.9H591.067V238.8Z" fill="#E9E9E9"/>
<path fill-rule="evenodd" clip-rule="evenodd" d="M310 190C362.467 190 405 147.467 405 95V0H310C257.533 0 215 42.5329 215 95C215 147.467 257.533 190 310 190Z" fill="url(#paint0_radial)"/>
<defs>
<radialGradient id="paint0_radial" cx="0" cy="0" r="1" gradientUnits="userSpaceOnUse" gradientTransform="translate(386.242 28.7421) rotate(136.941) scale(221.12 264.001)">
<stop stop-color="#179EE0"/>
<stop offset="1" stop-color="#410E82"/>
</radialGradient>
</defs>
</svg>
