<svg width="1280" height="720" viewBox="0 0 1280 720" fill="none" xmlns="http://www.w3.org/2000/svg">
<rect width="1280" height="720" fill="#0F141B"/>
<path d="M542.026 493C540.163 493 538.376 492.26 537.058 490.942C535.74 489.624 535 487.837 535 485.974V233.026C535 231.163 535.74 229.376 537.058 228.058C538.376 226.74 540.163 226 542.026 226H692.656C693.625 225.999 694.583 226.199 695.47 226.585C696.357 226.972 697.155 227.539 697.814 228.248L743.92 278.22C745.12 279.516 745.787 281.217 745.789 282.983V485.974C745.789 487.837 745.049 489.624 743.732 490.942C742.414 492.26 740.627 493 738.763 493H542.026ZM549.053 478.947H731.737V285.724L689.579 240.053H549.053V478.947Z" fill="#A7AFB7"/>
<path d="M675.526 240.053V282.211C675.526 285.938 677.007 289.512 679.642 292.147C682.278 294.783 685.852 296.263 689.579 296.263H731.737V282.211H689.579V240.053H675.526Z" fill="#A7AFB7"/>
</svg>
